<svg xmlns="http://www.w3.org/2000/svg" width="24" height="24" viewBox="0 0 24 24">
  <path fill="#BDBDBD" fill-rule="evenodd" d="M22.37316,0 L1.30684,0 C0.5846,0 0,0.5846 0,1.30684 L0,22.37316 C0,23.0954 0.5846,23.68 1.30684,23.68 L12.64808,23.68 L12.64808,14.50992 L9.5608,14.50992 L9.5608,10.9372 L12.64808,10.9372 L12.64808,8.29836 C12.64808,5.24068 14.51584,3.57716 17.24496,3.57716 C18.5518,3.57716 19.67512,3.67188 20.0022,3.71628 L20.0022,6.91308 L18.1078,6.91308 C16.6278,6.91308 16.3392,7.61756 16.3392,8.65356 L16.3392,10.93276 L19.8764,10.93276 L19.4176,14.50844 L16.3392,14.50844 L16.3392,23.68 L22.37316,23.68 C23.0954,23.68 23.68,23.0954 23.68,22.37316 L23.68,1.30684 C23.68,0.5846 23.0954,0 22.37316,0"/>
</svg>
