<svg xmlns="http://www.w3.org/2000/svg" width="25" height="16" viewBox="0 0 25 16">
  <path fill="#BDBDBD" fill-rule="evenodd" d="M7.5332,7.80404 L7.5332,10.38664 L11.8104,10.38664 C11.63872,11.49664 10.51836,13.6382 7.53764,13.6382 C4.96688,13.6382 2.86824,11.507 2.86824,8.88 C2.86824,6.253 4.96244,4.1218 7.5332,4.1218 C8.9984,4.1218 9.97816,4.74636 10.5376,5.28508 L12.58296,3.31668 C11.2702,2.08828 9.5682,1.34828 7.53616,1.34828 C3.367,1.3468 0,4.71232 0,8.88 C0,13.04768 3.36848,16.4132 7.5332,16.4132 C11.8844,16.4132 14.76744,13.357 14.76744,9.05168 C14.76744,8.55736 14.71416,8.17848 14.64904,7.80404 L7.5332,7.80404 L7.5332,7.80404 Z M23.68,7.80404 L21.5266,7.80404 L21.5266,5.65064 L19.3732,5.65064 L19.3732,7.80404 L17.22128,7.80404 L17.22128,9.95596 L19.37468,9.95596 L19.37468,12.10936 L21.52808,12.10936 L21.52808,9.95596 L23.68,9.95596 L23.68,7.80404 Z" transform="translate(.36 -1.04)"/>
</svg>
