<svg width="49px" height="48px" viewBox="71 0 49 48" version="1.1" xmlns="http://www.w3.org/2000/svg" xmlns:xlink="http://www.w3.org/1999/xlink">
    <g id="ic_account_circle_black" stroke="none" stroke-width="1" fill="none" fill-rule="evenodd" transform="translate(71.000000, 0.000000)">
        <g id="Group">
            <polygon id="Shape" points="0 0 48 0 48 48 0 48"></polygon>
            <path d="M24,4 C12.96,4 4,12.96 4,24 C4,35.04 12.96,44 24,44 C35.04,44 44,35.04 44,24 C44,12.96 35.04,4 24,4 L24,4 Z M24,10 C27.32,10 30,12.68 30,16 C30,19.32 27.32,22 24,22 C20.68,22 18,19.32 18,16 C18,12.68 20.68,10 24,10 L24,10 Z M24,38.4 C19,38.4 14.58,35.84 12,31.96 C12.06,27.98 20,25.8 24,25.8 C27.98,25.8 35.94,27.98 36,31.96 C33.42,35.84 29,38.4 24,38.4 L24,38.4 Z" id="Shape" fill="#4CAF50"></path>
        </g>
    </g>
</svg>
