<svg xmlns="http://www.w3.org/2000/svg" width="31" height="25" viewBox="0 0 31 25">
  <g fill="none" fill-rule="evenodd" transform="translate(0 -3)">
    <polygon points="0 0 31 0 31 31 0 31"/>
    <path fill="#F44336" d="M27.125,10.3333333 L27.125,9.04166667 L23.25,11.625 L19.375,9.04166667 L19.375,10.3333333 L23.25,12.9166667 L27.125,10.3333333 L27.125,10.3333333 Z M28.4166667,3.875 L2.58333333,3.875 C1.1625,3.875 0,5.0375 0,6.45833333 L0,24.5416667 C0,25.9625 1.1625,27.125 2.58333333,27.125 L28.4166667,27.125 C29.8375,27.125 30.9870833,25.9625 30.9870833,24.5416667 L31,6.45833333 C31,5.0375 29.8375,3.875 28.4166667,3.875 L28.4166667,3.875 Z M10.3333333,7.75 C12.4775,7.75 14.2083333,9.48083333 14.2083333,11.625 C14.2083333,13.7691667 12.4775,15.5 10.3333333,15.5 C8.18916667,15.5 6.45833333,13.7691667 6.45833333,11.625 C6.45833333,9.48083333 8.18916667,7.75 10.3333333,7.75 L10.3333333,7.75 Z M18.0833333,23.25 L2.58333333,23.25 L2.58333333,21.9583333 C2.58333333,19.375 7.75,17.9541667 10.3333333,17.9541667 C12.9166667,17.9541667 18.0833333,19.375 18.0833333,21.9583333 L18.0833333,23.25 L18.0833333,23.25 Z M28.4166667,15.5 L18.0833333,15.5 L18.0833333,7.75 L28.4166667,7.75 L28.4166667,15.5 L28.4166667,15.5 Z"/>
  </g>
</svg>
