<svg xmlns="http://www.w3.org/2000/svg" width="36" height="24" viewBox="0 0 36 24">
  <g fill="none" fill-rule="evenodd" transform="translate(0 -6)">
    <polygon points="0 0 36 0 36 36 0 36"/>
    <path fill="#454545" d="M6,9 L33,9 L33,6 L6,6 C4.35,6 3,7.35 3,9 L3,25.5 L0,25.5 L0,30 L21,30 L21,25.5 L6,25.5 L6,9 L6,9 Z M34.5,12 L25.5,12 C24.675,12 24,12.675 24,13.5 L24,28.5 C24,29.325 24.675,30 25.5,30 L34.5,30 C35.325,30 36,29.325 36,28.5 L36,13.5 C36,12.675 35.325,12 34.5,12 L34.5,12 Z M33,25.5 L27,25.5 L27,15 L33,15 L33,25.5 L33,25.5 Z"/>
  </g>
</svg>
