<svg xmlns="http://www.w3.org/2000/svg" width="30" height="28" viewBox="0 0 30 28">
  <g fill="none" fill-rule="evenodd" transform="translate(-3 -4)">
    <polygon points="0 0 36 0 36 36 0 36"/>
    <path fill="#CF0404" d="M30,7.5 L25.2,7.5 L22.5,4.5 L13.5,4.5 L10.8,7.5 L6,7.5 C4.35,7.5 3,8.85 3,10.5 L3,28.5 C3,30.15 4.35,31.5 6,31.5 L30,31.5 C31.65,31.5 33,30.15 33,28.5 L33,10.5 C33,8.85 31.65,7.5 30,7.5 L30,7.5 Z M30,28.5 L18,28.5 L18,27 C13.8,27 10.5,23.7 10.5,19.5 C10.5,15.3 13.8,12 18,12 L18,10.5 L30,10.5 L30,28.5 L30,28.5 Z M25.5,19.5 C25.5,15.3 22.2,12 18,12 L18,14.7 C20.7,14.7 22.8,16.8 22.8,19.5 C22.8,22.2 20.7,24.3 18,24.3 L18,27 C22.2,27 25.5,23.7 25.5,19.5 L25.5,19.5 Z M13.2,19.5 C13.2,22.2 15.3,24.3 18,24.3 L18,14.7 C15.3,14.7 13.2,16.8 13.2,19.5 L13.2,19.5 Z"/>
  </g>
</svg>
