<svg xmlns="http://www.w3.org/2000/svg" width="26" height="30" viewBox="0 0 26 30">
  <g fill="none" fill-rule="evenodd" transform="translate(-4 -2)">
    <polygon points="0 0 34 0 34 34 0 34"/>
    <path fill="#F1592A" d="M25.5,22.78 C24.4233333,22.78 23.46,23.205 22.7233333,23.8708333 L12.6225,17.9916667 C12.6933333,17.6658333 12.75,17.34 12.75,17 C12.75,16.66 12.6933333,16.3341667 12.6225,16.0083333 L22.61,10.1858333 C23.375,10.8941667 24.3808333,11.3333333 25.5,11.3333333 C27.8516667,11.3333333 29.75,9.435 29.75,7.08333333 C29.75,4.73166667 27.8516667,2.83333333 25.5,2.83333333 C23.1483333,2.83333333 21.25,4.73166667 21.25,7.08333333 C21.25,7.42333333 21.3066667,7.74916667 21.3775,8.075 L11.39,13.8975 C10.625,13.1891667 9.61916667,12.75 8.5,12.75 C6.14833333,12.75 4.25,14.6483333 4.25,17 C4.25,19.3516667 6.14833333,21.25 8.5,21.25 C9.61916667,21.25 10.625,20.8108333 11.39,20.1025 L21.4766667,25.9958333 C21.4058333,26.2933333 21.3633333,26.605 21.3633333,26.9166667 C21.3633333,29.1975 23.2191667,31.0533333 25.5,31.0533333 C27.7808333,31.0533333 29.6366667,29.1975 29.6366667,26.9166667 C29.6366667,24.6358333 27.7808333,22.78 25.5,22.78 L25.5,22.78 Z"/>
  </g>
</svg>
