<svg xmlns="http://www.w3.org/2000/svg" width="24" height="24" viewBox="0 0 24 24">
  <path fill="#BDBDBD" fill-rule="evenodd" d="M11.84,0 C8.62396,0 8.2214,0.0148 6.95896,0.07104 C5.698,0.13024 4.8396,0.32856 4.0848,0.6216 C3.30632,0.92352 2.64476,1.32904 1.98764,1.98764 C1.32904,2.64476 0.92204,3.30484 0.6216,4.0848 C0.32856,4.8396 0.12876,5.698 0.07104,6.95896 C0.01184,8.2214 0,8.62396 0,11.84 C0,15.05604 0.0148,15.4586 0.07104,16.72104 C0.13024,17.982 0.32856,18.84188 0.6216,19.5952 C0.92352,20.37368 1.32904,21.03524 1.98764,21.69236 C2.64476,22.35096 3.30484,22.75796 4.0848,23.0584 C4.8396,23.35144 5.698,23.55124 6.95896,23.60896 C8.2214,23.66816 8.62396,23.68 11.84,23.68 C15.05604,23.68 15.4586,23.6652 16.72104,23.60896 C17.982,23.54976 18.84188,23.35144 19.5952,23.0584 C20.37368,22.75648 21.03524,22.35096 21.69236,21.69236 C22.35096,21.03524 22.75796,20.37516 23.0584,19.5952 C23.35144,18.8404 23.55124,17.982 23.60896,16.72104 C23.66816,15.4586 23.68,15.05604 23.68,11.84 C23.68,8.62396 23.6652,8.2214 23.60896,6.95896 C23.54976,5.698 23.35144,4.83812 23.0584,4.0848 C22.75648,3.30632 22.35096,2.64476 21.69236,1.98764 C21.03524,1.32904 20.37516,0.92204 19.5952,0.6216 C18.8404,0.32856 17.982,0.12876 16.72104,0.07104 C15.4586,0.01184 15.05604,0 11.84,0 L11.84,0 Z M11.84,2.1312 C15.00128,2.1312 15.3772,2.146 16.62484,2.20224 C17.77924,2.25552 18.40528,2.44792 18.82264,2.61072 C19.37616,2.82532 19.76984,3.08136 20.18424,3.49576 C20.59864,3.91016 20.85468,4.30384 21.06928,4.85736 C21.23208,5.27472 21.42448,5.90076 21.47776,7.05516 C21.534,8.30428 21.54732,8.67872 21.54732,11.84 C21.54732,15.00128 21.53252,15.3772 21.47628,16.62484 C21.423,17.77924 21.2306,18.40528 21.0678,18.82264 C20.8532,19.37616 20.59716,19.76984 20.18276,20.18424 C19.76836,20.59864 19.37468,20.85468 18.82116,21.06928 C18.4038,21.23208 17.77776,21.42448 16.62336,21.47776 C15.37424,21.534 14.9998,21.54732 11.83852,21.54732 C8.67724,21.54732 8.30132,21.53252 7.05368,21.47628 C5.89928,21.423 5.27324,21.2306 4.85588,21.0678 C4.30236,20.8532 3.90868,20.59716 3.49428,20.18276 C3.07988,19.76836 2.82384,19.37468 2.60924,18.82116 C2.44644,18.4038 2.25404,17.77776 2.20076,16.62336 C2.146,15.3772 2.1312,15.00128 2.1312,11.84 C2.1312,8.67872 2.146,8.3028 2.20224,7.05516 C2.25552,5.90076 2.44792,5.27472 2.61072,4.85736 C2.82532,4.30384 3.08136,3.91016 3.49576,3.49576 C3.91016,3.08136 4.30384,2.82532 4.85736,2.61072 C5.27472,2.44792 5.90076,2.25552 7.05516,2.20224 C8.3028,2.146 8.67872,2.1312 11.84,2.1312 L11.84,2.1312 Z M11.84,5.76016 C8.4804,5.76016 5.76016,8.48336 5.76016,11.84 C5.76016,15.1996 8.48336,17.91984 11.84,17.91984 C15.1996,17.91984 17.91984,15.19664 17.91984,11.84 C17.91984,8.4804 15.19664,5.76016 11.84,5.76016 L11.84,5.76016 Z M11.84,15.78716 C9.65996,15.78716 7.89284,14.02004 7.89284,11.84 C7.89284,9.65996 9.65996,7.89284 11.84,7.89284 C14.02004,7.89284 15.78716,9.65996 15.78716,11.84 C15.78716,14.02004 14.02004,15.78716 11.84,15.78716 L11.84,15.78716 Z M19.5804,5.5204 C19.5804,6.3048 18.944,6.9412 18.1596,6.9412 C17.3752,6.9412 16.7388,6.3048 16.7388,5.5204 C16.7388,4.736 17.3752,4.0996 18.1596,4.0996 C18.944,4.0996 19.5804,4.736 19.5804,5.5204 L19.5804,5.5204 Z" transform="translate(.32)"/>
</svg>
