<svg xmlns="http://www.w3.org/2000/svg" width="25" height="24" viewBox="0 0 25 24">
  <path fill="#BDBDBD" fill-rule="evenodd" d="M20.17536,20.1798 L16.66776,20.1798 L16.66776,14.68456 C16.66776,13.37328 16.64112,11.68756 14.84144,11.68756 C13.01364,11.68756 12.73392,13.11428 12.73392,14.58836 L12.73392,20.1798 L9.22632,20.1798 L9.22632,8.88 L12.5948,8.88 L12.5948,10.4192 L12.6392,10.4192 C13.10984,9.5312 14.25536,8.59436 15.96476,8.59436 C19.51676,8.59436 20.17536,10.93276 20.17536,13.97712 L20.17536,20.17536 L20.17536,20.1798 Z M5.26584,7.3334 C4.13808,7.3334 3.22936,6.42024 3.22936,5.29544 C3.22936,4.1736 4.13808,3.26044 5.26584,3.26044 C6.39064,3.26044 7.30232,4.1736 7.30232,5.29544 C7.30232,6.42024 6.38916,7.3334 5.26584,7.3334 L5.26584,7.3334 Z M7.02408,20.1798 L3.5076,20.1798 L3.5076,8.88 L7.02408,8.88 L7.02408,20.1798 L7.02408,20.1798 Z M21.92768,0 L1.7464,0 C0.78144,0 0,0.76368 0,1.70644 L0,21.97356 C0,22.91632 0.78144,23.68 1.7464,23.68 L21.9262,23.68 C22.89116,23.68 23.68,22.91632 23.68,21.97356 L23.68,1.70644 C23.68,0.76368 22.89116,0 21.9262,0 L21.92768,0 Z" transform="translate(.4)"/>
</svg>
