<svg width="100px" height="30px" viewBox="30 30 100 30" version="1.1" xmlns="http://www.w3.org/2000/svg" xmlns:xlink="http://www.w3.org/1999/xlink">
    <g id="logo" stroke="none" stroke-width="1" fill="none" fill-rule="evenodd" transform="translate(30.000000, 30.000000)">
        <g id="Group" fill="#FFFFFF">
            <path d="M42.2536585,21.2195122 C44.7512195,21.2195122 46.0390244,19.6585366 46.0390244,17.6878049 C46.0390244,16.0682927 44.9463415,14.7219512 43.5414634,14.5073171 C44.7707317,14.2536585 45.7853659,13.1414634 45.7853659,11.5219512 C45.7853659,9.78536585 44.5170732,8.20487805 42.0390244,8.20487805 L35.1902439,8.20487805 L35.1902439,21.2195122 L42.2536585,21.2195122 L42.2536585,21.2195122 Z M41.4341463,13.3756098 L37.9609756,13.3756098 L37.9609756,10.6439024 L41.4341463,10.6439024 C42.3707317,10.6439024 42.9560976,11.2097561 42.9560976,12.0097561 C42.9560976,12.8487805 42.3707317,13.3756098 41.4341463,13.3756098 L41.4341463,13.3756098 L41.4341463,13.3756098 Z M41.5512195,18.7804878 L37.9609756,18.7804878 L37.9609756,15.8146341 L41.5512195,15.8146341 C42.6243902,15.8146341 43.2097561,16.4780488 43.2097561,17.297561 C43.2097561,18.2341463 42.5853659,18.7804878 41.5512195,18.7804878 L41.5512195,18.7804878 L41.5512195,18.7804878 Z M55.9804878,21.2195122 L55.9804878,15.1317073 C55.9804878,12.4195122 54.0097561,11.5609756 51.8439024,11.5609756 C50.3609756,11.5609756 48.8780488,12.0097561 47.7268293,13.0439024 L48.702439,14.7804878 C49.4829268,14.0585366 50.4195122,13.6682927 51.4146341,13.6682927 C52.6634146,13.6682927 53.4829268,14.2926829 53.4829268,15.2487805 L53.4829268,16.4390244 C52.8585366,15.697561 51.7658537,15.2878049 50.497561,15.2878049 C48.995122,15.2878049 47.2390244,16.1073171 47.2390244,18.3317073 C47.2390244,20.4390244 48.995122,21.4536585 50.497561,21.4536585 C51.7268293,21.4536585 52.8390244,21.004878 53.4829268,20.2243902 L53.4829268,21.2195122 L55.9804878,21.2195122 L55.9804878,21.2195122 Z M51.4926829,19.7756098 C50.5170732,19.7756098 49.7170732,19.2682927 49.7170732,18.3707317 C49.7170732,17.4731707 50.5170732,16.9463415 51.4926829,16.9463415 C52.2926829,16.9463415 53.0731707,17.2390244 53.4829268,17.7853659 L53.4829268,18.9560976 C53.0731707,19.502439 52.2926829,19.7756098 51.4926829,19.7756098 L51.4926829,19.7756098 L51.4926829,19.7756098 Z M61.5707317,21.4536585 C64.1853659,21.4536585 65.6682927,20.1853659 65.6682927,18.4487805 C65.6682927,14.6439024 60.0682927,15.8146341 60.0682927,14.4292683 C60.0682927,13.902439 60.6536585,13.5121951 61.5512195,13.5121951 C62.702439,13.5121951 63.7756098,14.0195122 64.3414634,14.604878 L65.3365854,12.8487805 C64.4,12.1073171 63.1317073,11.5609756 61.5512195,11.5609756 C59.0536585,11.5609756 57.6878049,12.9463415 57.6878049,14.5268293 C57.6878049,18.2341463 63.2682927,16.9658537 63.2682927,18.5073171 C63.2682927,19.0926829 62.7609756,19.502439 61.6878049,19.502439 C60.5170732,19.502439 59.1317073,18.8585366 58.4292683,18.195122 L57.3560976,19.9902439 C58.3512195,20.9073171 59.9317073,21.4536585 61.5707317,21.4536585 L61.5707317,21.4536585 L61.5707317,21.4536585 Z M71.6682927,21.4536585 C73.1317073,21.4536585 74.6146341,21.004878 75.5512195,20.1463415 L74.4390244,18.5073171 C73.8341463,19.0926829 72.7414634,19.4243902 71.9414634,19.4243902 C70.3414634,19.4243902 69.404878,18.4682927 69.2292683,17.3170732 L76.2341463,17.3170732 L76.2341463,16.7317073 C76.2341463,13.6682927 74.3414634,11.5609756 71.5121951,11.5609756 C68.6634146,11.5609756 66.6341463,13.7658537 66.6341463,16.497561 C66.6341463,19.5219512 68.8,21.4536585 71.6682927,21.4536585 L71.6682927,21.4536585 L71.6682927,21.4536585 Z M73.8536585,15.6 L69.2097561,15.6 C69.3073171,14.6634146 69.9707317,13.5902439 71.5121951,13.5902439 C73.1512195,13.5902439 73.7756098,14.702439 73.8536585,15.6 L73.8536585,15.6 L73.8536585,15.6 Z M88.9853659,21.2195122 L83.4634146,14.3121951 L88.6341463,8.20487805 L85.2195122,8.20487805 L80.6146341,14 L80.6146341,8.20487805 L77.8439024,8.20487805 L77.8439024,21.2195122 L80.6146341,21.2195122 L80.6146341,17.2195122 L81.6292683,15.9902439 L85.5707317,21.2195122 L88.9853659,21.2195122 L88.9853659,21.2195122 Z M91.1804878,10.7804878 C92,10.7804878 92.6634146,10.1170732 92.6634146,9.29756098 C92.6634146,8.47804878 92,7.83414634 91.1804878,7.83414634 C90.3804878,7.83414634 89.7170732,8.47804878 89.7170732,9.29756098 C89.7170732,10.1170732 90.3804878,10.7804878 91.1804878,10.7804878 L91.1804878,10.7804878 L91.1804878,10.7804878 Z M92.4292683,21.2195122 L92.4292683,11.795122 L89.9512195,11.795122 L89.9512195,21.2195122 L92.4292683,21.2195122 L92.4292683,21.2195122 Z M97.804878,21.4536585 C98.8390244,21.4536585 99.502439,21.1804878 99.8731707,20.8487805 L99.3463415,18.9560976 C99.2097561,19.1121951 98.8585366,19.2487805 98.4878049,19.2487805 C97.9414634,19.2487805 97.6292683,18.8 97.6292683,18.195122 L97.6292683,13.9609756 L99.5414634,13.9609756 L99.5414634,11.795122 L97.6292683,11.795122 L97.6292683,9.2195122 L95.1512195,9.2195122 L95.1512195,11.795122 L93.5902439,11.795122 L93.5902439,13.9609756 L95.1512195,13.9609756 L95.1512195,18.8585366 C95.1512195,20.5560976 96.0682927,21.4536585 97.804878,21.4536585 L97.804878,21.4536585 L97.804878,21.4536585 Z" id="BaseKit"></path>
            <path d="M0,0 L29.2682927,0 L29.2682927,29.2682927 L0,29.2682927 L0,0 L0,0 Z M12.1521951,20.9756098 C14.5492683,20.9756098 15.8429268,19.5107317 15.8429268,17.5321951 C15.8429268,15.9912195 14.7585366,14.6404878 13.3887805,14.4312195 C14.5682927,14.1839024 15.5956098,13.0995122 15.5956098,11.5204878 C15.5956098,9.73219512 14.3209756,8.28634146 11.9809756,8.28634146 L5.74097561,8.28634146 L5.74097561,20.9756098 L12.1521951,20.9756098 L12.1521951,20.9756098 Z M11.5434146,13.5180488 L7.96682927,13.5180488 L7.96682927,10.2458537 L11.5434146,10.2458537 C12.6658537,10.2458537 13.3126829,10.9497561 13.3126829,11.8819512 C13.3126829,12.8521951 12.6658537,13.5180488 11.5434146,13.5180488 L11.5434146,13.5180488 Z M11.6385366,19.0160976 L7.96682927,19.0160976 L7.96682927,15.477561 L11.6385366,15.477561 C12.8941463,15.477561 13.56,16.2956098 13.56,17.2468293 C13.56,18.3502439 12.8370732,19.0160976 11.6385366,19.0160976 L11.6385366,19.0160976 Z M23.7639024,20.9819512 L18.2087805,14.2663415 L23.3643902,8.29268293 L20.6058537,8.29268293 L15.6404878,14.3234146 L16.7629268,15.6170732 L21.0053659,20.9819512 L23.7639024,20.9819512 L23.7639024,20.9819512 Z" id="BK"></path>
        </g>
    </g>
</svg>
