<svg xmlns="http://www.w3.org/2000/svg" width="24" height="20" viewBox="0 0 24 20">
  <path fill="#BDBDBD" fill-rule="evenodd" d="M23.68,3.01624 C22.8068,3.40104 21.8744,3.663 20.8902,3.7814 C21.89216,3.17904 22.66324,2.2274 23.02584,1.09372 C22.08752,1.64872 21.04708,2.05276 19.94004,2.27032 C19.055,1.32608 17.79404,0.73704 16.39396,0.73704 C13.7122,0.73704 11.5366,2.90968 11.5366,5.59144 C11.5366,5.97328 11.581,6.34624 11.6624,6.70144 C7.62496,6.4972 4.04484,4.56432 1.64872,1.628 C1.2284,2.34284 0.9916,3.17756 0.9916,4.07 C0.9916,5.7572 1.85,7.24164 3.1524,8.11336 C2.35616,8.0882 1.6058,7.86916 0.95164,7.50656 L0.95164,7.56576 C0.95164,9.91896 2.62404,11.8844 4.84848,12.33136 C4.44,12.44088 4.0108,12.50008 3.56828,12.50008 C3.25748,12.50008 2.9526,12.47048 2.65512,12.41424 C3.27376,14.34416 5.06752,15.74868 7.19428,15.78864 C5.53076,17.09104 3.43508,17.86656 1.16032,17.86656 C0.76812,17.86656 0.38184,17.84436 0.00148,17.79996 C2.15192,19.17636 4.70492,19.98148 7.44884,19.98148 C16.38508,19.98148 21.27204,12.58148 21.27204,6.16124 C21.27204,5.9496 21.26612,5.74092 21.25724,5.53224 C22.20444,4.847 23.03028,3.99304 23.68148,3.01624 L23.68,3.01624 Z" transform="translate(-.04 -.52)"/>
</svg>
